<svg width={16} height={16} viewBox="0 0 16 16" fill="none" xmlns="http://www.w3.org/2000/svg">
  <path d="M13.9135 11.5L12.1069 8.38C12.4766 7.701 12.6692 6.93978 12.6669 6.16667C12.6669 4.92899 12.1752 3.742 11.3 2.86683C10.4249 1.99167 9.23789 1.5 8.00021 1.5C6.76254 1.5 5.57555 1.99167 4.70038 2.86683C3.82521 3.742 3.33354 4.92899 3.33354 6.16667C3.33125 6.93978 3.52385 7.701 3.89354 8.38L2.08688 11.5C2.02825 11.6015 1.99744 11.7167 1.99756 11.834C1.99767 11.9512 2.02871 12.0664 2.08754 12.1678C2.14636 12.2692 2.2309 12.3534 2.33262 12.4117C2.43433 12.47 2.54963 12.5005 2.66688 12.5H4.58021L5.55354 14.14C5.58636 14.1944 5.62677 14.2437 5.67354 14.2867C5.79713 14.4058 5.9619 14.4726 6.13354 14.4733H6.22688C6.32752 14.4596 6.42369 14.423 6.50804 14.3664C6.59238 14.3097 6.66267 14.2346 6.71354 14.1467L8.00021 11.9333L9.28688 14.1667C9.3385 14.2534 9.40912 14.3272 9.49342 14.3826C9.57772 14.4381 9.6735 14.4736 9.77355 14.4867H9.86688C10.0408 14.4877 10.2083 14.4207 10.3335 14.3C10.3784 14.2595 10.4166 14.2123 10.4469 14.16L11.4202 12.52H13.3335C13.451 12.5205 13.5665 12.4899 13.6684 12.4313C13.7702 12.3728 13.8548 12.2884 13.9135 12.1867C13.9758 12.083 14.0088 11.9643 14.0088 11.8433C14.0088 11.7224 13.9758 11.6037 13.9135 11.5ZM6.12688 12.52L5.53355 11.5267C5.47512 11.4281 5.39228 11.3463 5.29303 11.2891C5.19377 11.2318 5.08144 11.2012 4.96688 11.2H3.81354L4.76688 9.54667C5.42336 10.1793 6.25076 10.6057 7.14688 10.7733L6.12688 12.52ZM8.00021 9.5C7.34094 9.5 6.69647 9.3045 6.14831 8.93823C5.60015 8.57196 5.17291 8.05136 4.92061 7.44228C4.66832 6.83319 4.60231 6.16297 4.73093 5.51637C4.85954 4.86976 5.17701 4.27582 5.64319 3.80964C6.10936 3.34347 6.70331 3.026 7.34991 2.89738C7.99651 2.76877 8.66674 2.83478 9.27582 3.08707C9.88491 3.33936 10.4055 3.7666 10.7718 4.31477C11.138 4.86293 11.3335 5.5074 11.3335 6.16667C11.3335 7.05072 10.9824 7.89857 10.3572 8.52369C9.73211 9.14881 8.88427 9.5 8.00021 9.5ZM11.0335 11.2C10.919 11.2012 10.8067 11.2318 10.7074 11.2891C10.6081 11.3463 10.5253 11.4281 10.4669 11.5267L9.87355 12.52L8.86021 10.7533C9.7532 10.5823 10.5775 10.1562 11.2335 9.52667L12.1869 11.18L11.0335 11.2Z" fill="#898DA6" />
</svg>
