<svg width={16} height={16} viewBox="0 0 16 16" fill="none" xmlns="http://www.w3.org/2000/svg">
  <path d="M12.6668 5.33301H12.0002V3.33301C12.0002 2.80257 11.7894 2.29387 11.4144 1.91879C11.0393 1.54372 10.5306 1.33301 10.0002 1.33301H3.3335C2.80306 1.33301 2.29436 1.54372 1.91928 1.91879C1.54421 2.29387 1.3335 2.80257 1.3335 3.33301V11.333C1.33415 11.4646 1.37375 11.5931 1.44731 11.7022C1.52087 11.8114 1.62508 11.8963 1.74683 11.9463C1.82595 11.9837 1.91271 12.0019 2.00016 11.9997C2.0879 12.0002 2.17488 11.9834 2.2561 11.9502C2.33733 11.917 2.4112 11.8681 2.4735 11.8063L4.34683 9.92634H5.3335V10.8863C5.3335 11.4168 5.54421 11.9255 5.91928 12.3006C6.29436 12.6756 6.80306 12.8863 7.3335 12.8863H11.9468L13.5268 14.473C13.5891 14.5348 13.663 14.5837 13.7442 14.6169C13.8254 14.65 13.9124 14.6668 14.0002 14.6663C14.0876 14.6686 14.1744 14.6503 14.2535 14.613C14.3752 14.563 14.4795 14.4781 14.553 14.3689C14.6266 14.2598 14.6662 14.1313 14.6668 13.9997V7.33301C14.6668 6.80258 14.4561 6.29387 14.081 5.91879C13.706 5.54372 13.1973 5.33301 12.6668 5.33301ZM5.3335 7.33301V8.59301H4.0735C3.98576 8.5925 3.89878 8.60932 3.81756 8.64249C3.73633 8.67567 3.66246 8.72455 3.60016 8.78634L2.66683 9.72634V3.33301C2.66683 3.1562 2.73707 2.98663 2.86209 2.8616C2.98712 2.73658 3.15669 2.66634 3.3335 2.66634H10.0002C10.177 2.66634 10.3465 2.73658 10.4716 2.8616C10.5966 2.98663 10.6668 3.1562 10.6668 3.33301V5.33301H7.3335C6.80306 5.33301 6.29436 5.54372 5.91928 5.91879C5.54421 6.29387 5.3335 6.80258 5.3335 7.33301ZM13.3335 12.393L12.6668 11.7263C12.6051 11.6633 12.5315 11.6132 12.4502 11.5789C12.369 11.5446 12.2817 11.5267 12.1935 11.5263H7.3335C7.15669 11.5263 6.98712 11.4561 6.86209 11.3311C6.73707 11.2061 6.66683 11.0365 6.66683 10.8597V7.33301C6.66683 7.1562 6.73707 6.98663 6.86209 6.8616C6.98712 6.73658 7.15669 6.66634 7.3335 6.66634H12.6668C12.8436 6.66634 13.0132 6.73658 13.1382 6.8616C13.2633 6.98663 13.3335 7.1562 13.3335 7.33301V12.393Z" fill="#898DA6" />
</svg>
