<svg width="{16}" height="{16}" viewBox="0 0 16 16" fill="none" xmlns="http://www.w3.org/2000/svg">
  <path d="M14.6668 4.82635C14.6673 4.73861 14.6505 4.65164 14.6174 4.57041C14.5842 4.48919 14.5353 4.41531 14.4735 4.35302L11.6468 1.52635C11.5845 1.46456 11.5107 1.41568 11.4294 1.3825C11.3482 1.34933 11.2612 1.33251 11.1735 1.33302C11.0858 1.33251 10.9988 1.34933 10.9176 1.3825C10.8363 1.41568 10.7625 1.46456 10.7002 1.52635L8.81351 3.41302L1.52684 10.6997C1.46505 10.762 1.41617 10.8359 1.38299 10.9171C1.34982 10.9983 1.333 11.0853 1.33351 11.173V13.9997C1.33351 14.1765 1.40375 14.3461 1.52877 14.4711C1.65379 14.5961 1.82336 14.6664 2.00017 14.6664H4.82684C4.92013 14.6714 5.01344 14.6568 5.10072 14.6235C5.188 14.5902 5.26731 14.5389 5.33351 14.473L12.5802 7.18635L14.4735 5.33302C14.5344 5.26841 14.5839 5.19404 14.6202 5.11302C14.6266 5.05988 14.6266 5.00616 14.6202 4.95302C14.6233 4.92199 14.6233 4.89072 14.6202 4.85969L14.6668 4.82635ZM4.55351 13.333H2.66684V11.4464L9.28684 4.82635L11.1735 6.71302L4.55351 13.333ZM12.1135 5.77302L10.2268 3.88635L11.1735 2.94635L13.0535 4.82635L12.1135 5.77302Z" fill="#0D2E69" />
</svg>
