<svg width={16} height={16} viewBox="0 0 16 16" fill="none" xmlns="http://www.w3.org/2000/svg">
  <path d="M13.2668 8.4396C13.1599 8.31795 13.1009 8.16154 13.1009 7.9996C13.1009 7.83767 13.1599 7.68126 13.2668 7.5596L14.1201 6.5996C14.2141 6.49472 14.2725 6.36274 14.2869 6.22261C14.3013 6.08248 14.2709 5.9414 14.2001 5.8196L12.8668 3.51294C12.7967 3.39129 12.69 3.29486 12.5619 3.2374C12.4338 3.17993 12.2909 3.16438 12.1534 3.19294L10.9001 3.44627C10.7406 3.47922 10.5746 3.45266 10.4334 3.3716C10.2921 3.29055 10.1854 3.16059 10.1334 3.00627L9.72676 1.78627C9.68204 1.65386 9.59683 1.53885 9.48318 1.4575C9.36953 1.37615 9.23319 1.33258 9.09343 1.33294H6.42676C6.28138 1.32535 6.13752 1.36556 6.01714 1.44741C5.89676 1.52927 5.80648 1.64828 5.76009 1.78627L5.38676 3.00627C5.33476 3.16059 5.22808 3.29055 5.08684 3.3716C4.9456 3.45266 4.77957 3.47922 4.62009 3.44627L3.33343 3.19294C3.20313 3.17453 3.07029 3.19509 2.95166 3.25203C2.83302 3.30898 2.73389 3.39976 2.66676 3.51294L1.33343 5.8196C1.26087 5.94004 1.22824 6.08033 1.24022 6.22042C1.25219 6.36051 1.30815 6.49323 1.40009 6.5996L2.24676 7.5596C2.35364 7.68126 2.41258 7.83767 2.41258 7.9996C2.41258 8.16154 2.35364 8.31795 2.24676 8.4396L1.40009 9.3996C1.30815 9.50598 1.25219 9.6387 1.24022 9.77879C1.22824 9.91888 1.26087 10.0592 1.33343 10.1796L2.66676 12.4863C2.73683 12.6079 2.84351 12.7044 2.9716 12.7618C3.09968 12.8193 3.24264 12.8348 3.38009 12.8063L4.63343 12.5529C4.79291 12.52 4.95893 12.5465 5.10017 12.6276C5.24141 12.7087 5.34809 12.8386 5.40009 12.9929L5.80676 14.2129C5.85315 14.3509 5.94342 14.4699 6.0638 14.5518C6.18418 14.6337 6.32805 14.6739 6.47343 14.6663H9.14009C9.27986 14.6666 9.4162 14.6231 9.52985 14.5417C9.6435 14.4604 9.7287 14.3454 9.77343 14.2129L10.1801 12.9929C10.2321 12.8386 10.3388 12.7087 10.48 12.6276C10.6213 12.5465 10.7873 12.52 10.9468 12.5529L12.2001 12.8063C12.3375 12.8348 12.4805 12.8193 12.6086 12.7618C12.7367 12.7044 12.8434 12.6079 12.9134 12.4863L14.2468 10.1796C14.3175 10.0578 14.3479 9.91673 14.3336 9.7766C14.3192 9.63647 14.2608 9.50449 14.1668 9.3996L13.2668 8.4396ZM12.2734 9.33294L12.8068 9.93294L11.9534 11.4129L11.1668 11.2529C10.6866 11.1548 10.1871 11.2364 9.76316 11.4821C9.33917 11.7279 9.02019 12.1208 8.86676 12.5863L8.61343 13.3329H6.90676L6.66676 12.5729C6.51333 12.1075 6.19435 11.7146 5.77036 11.4688C5.34638 11.223 4.84691 11.1415 4.36676 11.2396L3.58009 11.3996L2.71343 9.92627L3.24676 9.32627C3.57473 8.95959 3.75605 8.48489 3.75605 7.99294C3.75605 7.50098 3.57473 7.02629 3.24676 6.6596L2.71343 6.0596L3.56676 4.59294L4.35343 4.75294C4.83357 4.85109 5.33305 4.76953 5.75703 4.52374C6.18101 4.27795 6.5 3.88504 6.65343 3.4196L6.90676 2.66627H8.61343L8.86676 3.42627C9.02019 3.89171 9.33917 4.28462 9.76316 4.5304C10.1871 4.77619 10.6866 4.85775 11.1668 4.7596L11.9534 4.5996L12.8068 6.0796L12.2734 6.67961C11.9491 7.04544 11.7701 7.51739 11.7701 8.00627C11.7701 8.49515 11.9491 8.9671 12.2734 9.33294ZM7.76009 5.33294C7.23268 5.33294 6.7171 5.48934 6.27857 5.78235C5.84004 6.07537 5.49825 6.49185 5.29641 6.97912C5.09458 7.46638 5.04177 8.00256 5.14467 8.51985C5.24756 9.03713 5.50154 9.51228 5.87448 9.88522C6.24742 10.2582 6.72257 10.5121 7.23985 10.615C7.75714 10.7179 8.29331 10.6651 8.78058 10.4633C9.26785 10.2614 9.68433 9.91966 9.97735 9.48112C10.2704 9.04259 10.4268 8.52702 10.4268 7.9996C10.4268 7.29236 10.1458 6.61408 9.64571 6.11399C9.14561 5.61389 8.46734 5.33294 7.76009 5.33294ZM7.76009 9.33294C7.49639 9.33294 7.2386 9.25474 7.01933 9.10823C6.80007 8.96172 6.62917 8.75348 6.52825 8.50985C6.42734 8.26621 6.40093 7.99813 6.45238 7.73948C6.50383 7.48084 6.63081 7.24327 6.81728 7.0568C7.00375 6.87033 7.24133 6.74334 7.49997 6.69189C7.75862 6.64044 8.0267 6.66685 8.27034 6.76777C8.51397 6.86868 8.72221 7.03958 8.86872 7.25884C9.01523 7.47811 9.09343 7.7359 9.09343 7.9996C9.09343 8.35323 8.95295 8.69237 8.7029 8.94241C8.45285 9.19246 8.11372 9.33294 7.76009 9.33294Z" fill="#898DA6" />
</svg>
