<svg width={16} height={16} viewBox="0 0 16 16" fill="none" xmlns="http://www.w3.org/2000/svg">
  <path d="M6.66683 8.66634H2.00016C1.82335 8.66634 1.65378 8.73658 1.52876 8.8616C1.40373 8.98663 1.3335 9.1562 1.3335 9.33301V13.9997C1.3335 14.1765 1.40373 14.3461 1.52876 14.4711C1.65378 14.5961 1.82335 14.6663 2.00016 14.6663H6.66683C6.84364 14.6663 7.01321 14.5961 7.13823 14.4711C7.26326 14.3461 7.3335 14.1765 7.3335 13.9997V9.33301C7.3335 9.1562 7.26326 8.98663 7.13823 8.8616C7.01321 8.73658 6.84364 8.66634 6.66683 8.66634ZM6.00016 13.333H2.66683V9.99967H6.00016V13.333ZM14.0002 1.33301H9.3335C9.15669 1.33301 8.98712 1.40325 8.86209 1.52827C8.73707 1.65329 8.66683 1.82286 8.66683 1.99967V6.66634C8.66683 6.84315 8.73707 7.01272 8.86209 7.13775C8.98712 7.26277 9.15669 7.33301 9.3335 7.33301H14.0002C14.177 7.33301 14.3465 7.26277 14.4716 7.13775C14.5966 7.01272 14.6668 6.84315 14.6668 6.66634V1.99967C14.6668 1.82286 14.5966 1.65329 14.4716 1.52827C14.3465 1.40325 14.177 1.33301 14.0002 1.33301V1.33301ZM13.3335 5.99967H10.0002V2.66634H13.3335V5.99967ZM14.0002 8.66634H9.3335C9.15669 8.66634 8.98712 8.73658 8.86209 8.8616C8.73707 8.98663 8.66683 9.1562 8.66683 9.33301V13.9997C8.66683 14.1765 8.73707 14.3461 8.86209 14.4711C8.98712 14.5961 9.15669 14.6663 9.3335 14.6663H14.0002C14.177 14.6663 14.3465 14.5961 14.4716 14.4711C14.5966 14.3461 14.6668 14.1765 14.6668 13.9997V9.33301C14.6668 9.1562 14.5966 8.98663 14.4716 8.8616C14.3465 8.73658 14.177 8.66634 14.0002 8.66634ZM13.3335 13.333H10.0002V9.99967H13.3335V13.333ZM6.66683 1.33301H2.00016C1.82335 1.33301 1.65378 1.40325 1.52876 1.52827C1.40373 1.65329 1.3335 1.82286 1.3335 1.99967V6.66634C1.3335 6.84315 1.40373 7.01272 1.52876 7.13775C1.65378 7.26277 1.82335 7.33301 2.00016 7.33301H6.66683C6.84364 7.33301 7.01321 7.26277 7.13823 7.13775C7.26326 7.01272 7.3335 6.84315 7.3335 6.66634V1.99967C7.3335 1.82286 7.26326 1.65329 7.13823 1.52827C7.01321 1.40325 6.84364 1.33301 6.66683 1.33301V1.33301ZM6.00016 5.99967H2.66683V2.66634H6.00016V5.99967Z" fill="#898DA6" />
</svg>
