<svg width={16} height={16} viewBox="0 0 16 16" fill="none" xmlns="http://www.w3.org/2000/svg">
  <path d="M11.9998 8.78634V6.66634C11.9989 5.72176 11.6637 4.80799 11.0536 4.08686C10.4435 3.36573 9.59788 2.88377 8.6665 2.72634V1.99967C8.6665 1.82286 8.59627 1.65329 8.47124 1.52827C8.34622 1.40325 8.17665 1.33301 7.99984 1.33301C7.82303 1.33301 7.65346 1.40325 7.52843 1.52827C7.40341 1.65329 7.33317 1.82286 7.33317 1.99967V2.72634C6.4018 2.88377 5.55619 3.36573 4.94609 4.08686C4.336 4.80799 4.00079 5.72176 3.99984 6.66634V8.78634C3.6108 8.92388 3.27384 9.17839 3.03513 9.51496C2.79642 9.85154 2.66766 10.2537 2.6665 10.6663V11.9997C2.6665 12.1765 2.73674 12.3461 2.86177 12.4711C2.98679 12.5961 3.15636 12.6663 3.33317 12.6663H5.4265C5.58003 13.2313 5.91517 13.73 6.38023 14.0855C6.8453 14.441 7.41443 14.6337 7.99984 14.6337C8.58524 14.6337 9.15438 14.441 9.61944 14.0855C10.0845 13.73 10.4196 13.2313 10.5732 12.6663H12.6665C12.8433 12.6663 13.0129 12.5961 13.1379 12.4711C13.2629 12.3461 13.3332 12.1765 13.3332 11.9997V10.6663C13.332 10.2537 13.2033 9.85154 12.9645 9.51496C12.7258 9.17839 12.3889 8.92388 11.9998 8.78634V8.78634ZM5.33317 6.66634C5.33317 5.9591 5.61412 5.28082 6.11422 4.78072C6.61432 4.28063 7.29259 3.99967 7.99984 3.99967C8.70708 3.99967 9.38536 4.28063 9.88546 4.78072C10.3856 5.28082 10.6665 5.9591 10.6665 6.66634V8.66634H5.33317V6.66634ZM7.99984 13.333C7.76715 13.3316 7.53889 13.2693 7.33772 13.1524C7.13656 13.0354 6.96951 12.8679 6.85317 12.6663H9.1465C9.03016 12.8679 8.86311 13.0354 8.66195 13.1524C8.46079 13.2693 8.23252 13.3316 7.99984 13.333ZM11.9998 11.333H3.99984V10.6663C3.99984 10.4895 4.07008 10.32 4.1951 10.1949C4.32012 10.0699 4.48969 9.99967 4.6665 9.99967H11.3332C11.51 9.99967 11.6796 10.0699 11.8046 10.1949C11.9296 10.32 11.9998 10.4895 11.9998 10.6663V11.333Z" fill="#898DA6" />
</svg>
