<svg width={16} height={16} viewBox="0 0 16 16" fill="none" xmlns="http://www.w3.org/2000/svg">
  <path d="M14.98 12.5471L14.3133 9.97376L12.2133 2.24709C12.168 2.07665 12.0569 1.93114 11.9044 1.84243C11.752 1.75371 11.5706 1.72902 11.4 1.77376L8.82 2.44043C8.75843 2.37219 8.68341 2.31742 8.59966 2.27956C8.51591 2.2417 8.42524 2.22157 8.33333 2.22043H1.66667C1.48986 2.22043 1.32029 2.29066 1.19526 2.41569C1.07024 2.54071 1 2.71028 1 2.88709V13.5538C1 13.7306 1.07024 13.9001 1.19526 14.0252C1.32029 14.1502 1.48986 14.2204 1.66667 14.2204H8.33333C8.51014 14.2204 8.67971 14.1502 8.80474 14.0252C8.92976 13.9001 9 13.7306 9 13.5538V8.22043L10.4667 13.7004C10.5057 13.8459 10.5929 13.9738 10.7139 14.0634C10.835 14.153 10.9828 14.1989 11.1333 14.1938C11.1909 14.2003 11.2491 14.2003 11.3067 14.1938L14.5267 13.3338C14.6118 13.311 14.6916 13.2716 14.7614 13.2178C14.8312 13.164 14.8896 13.0969 14.9333 13.0204C15.0037 12.8729 15.0202 12.7055 14.98 12.5471ZM4.31333 12.9138H2.31333V11.5804H4.31333V12.9138ZM4.31333 10.2471H2.31333V6.24709H4.31333V10.2471ZM4.31333 4.91376H2.31333V3.58043H4.31333V4.91376ZM7.64667 12.9138H5.64667V11.5804H7.64667V12.9138ZM7.64667 10.2471H5.64667V6.24709H7.64667V10.2471ZM7.64667 4.91376H5.64667V3.58043H7.64667V4.91376ZM9.14667 3.75376L11.08 3.23376L11.4267 4.52043L9.49333 5.04043L9.14667 3.75376ZM10.8733 10.1938L9.84 6.32709L11.7733 5.80709L12.8067 9.67376L10.8733 10.1938ZM11.54 12.7671L11.1933 11.4804L13.1267 10.9604L13.4733 12.2471L11.54 12.7671Z" fill="#898DA6" />
</svg>
