<svg width={16} height={16} viewBox="0 0 16 16" fill="none" xmlns="http://www.w3.org/2000/svg">
  <path d="M14.3269 6.79371L13.6602 6.42704L7.66024 3.09371H7.58691C7.54604 3.07643 7.50363 3.06304 7.46024 3.05371H7.33358H7.21358C7.16803 3.06304 7.12341 3.07643 7.08024 3.09371H7.00691L1.00691 6.42704C0.904312 6.48519 0.818973 6.56951 0.7596 6.6714C0.700227 6.7733 0.668945 6.88911 0.668945 7.00704C0.668945 7.12497 0.700227 7.24079 0.7596 7.34269C0.818973 7.44458 0.904312 7.5289 1.00691 7.58704L2.66691 8.50704V11.667C2.66691 12.1975 2.87762 12.7062 3.2527 13.0813C3.62777 13.4563 4.13648 13.667 4.66691 13.667H10.0002C10.5307 13.667 11.0394 13.4563 11.4145 13.0813C11.7895 12.7062 12.0002 12.1975 12.0002 11.667V8.50704L13.3336 7.76038V9.66704C13.3336 9.84385 13.4038 10.0134 13.5288 10.1384C13.6539 10.2635 13.8234 10.3337 14.0002 10.3337C14.1771 10.3337 14.3466 10.2635 14.4716 10.1384C14.5967 10.0134 14.6669 9.84385 14.6669 9.66704V7.37371C14.6667 7.25558 14.6351 7.13962 14.5754 7.03771C14.5156 6.9358 14.4299 6.85159 14.3269 6.79371ZM10.6669 11.667C10.6669 11.8439 10.5967 12.0134 10.4716 12.1384C10.3466 12.2635 10.1771 12.3337 10.0002 12.3337H4.66691C4.4901 12.3337 4.32053 12.2635 4.19551 12.1384C4.07048 12.0134 4.00024 11.8439 4.00024 11.667V9.24704L7.00691 10.9137L7.10691 10.9537H7.16691C7.22225 10.9607 7.27824 10.9607 7.33358 10.9537C7.38891 10.9607 7.44491 10.9607 7.50024 10.9537H7.56024C7.59564 10.9462 7.62947 10.9327 7.66024 10.9137L10.6669 9.24704V11.667ZM7.33358 9.57371L2.70691 7.00038L7.33358 4.42704L11.9602 7.00038L7.33358 9.57371Z" fill="#898DA6" />
</svg>
