<svg width={16} height={16} viewBox="0 0 16 16" fill="none" xmlns="http://www.w3.org/2000/svg">
  <path d="M8.66683 10.667H4.66683C4.49002 10.667 4.32045 10.7373 4.19543 10.8623C4.07041 10.9873 4.00017 11.1569 4.00017 11.3337C4.00017 11.5105 4.07041 11.6801 4.19543 11.8051C4.32045 11.9301 4.49002 12.0004 4.66683 12.0004H8.66683C8.84365 12.0004 9.01322 11.9301 9.13824 11.8051C9.26326 11.6801 9.3335 11.5105 9.3335 11.3337C9.3335 11.1569 9.26326 10.9873 9.13824 10.8623C9.01322 10.7373 8.84365 10.667 8.66683 10.667ZM6.00017 6.66704H7.3335C7.51031 6.66704 7.67988 6.5968 7.80491 6.47178C7.92993 6.34675 8.00017 6.17718 8.00017 6.00037C8.00017 5.82356 7.92993 5.65399 7.80491 5.52897C7.67988 5.40394 7.51031 5.3337 7.3335 5.3337H6.00017C5.82336 5.3337 5.65379 5.40394 5.52876 5.52897C5.40374 5.65399 5.3335 5.82356 5.3335 6.00037C5.3335 6.17718 5.40374 6.34675 5.52876 6.47178C5.65379 6.5968 5.82336 6.66704 6.00017 6.66704ZM14.0002 8.00037H12.0002V2.00037C12.0006 1.8829 11.9701 1.76739 11.9115 1.66554C11.853 1.56368 11.7686 1.47911 11.6668 1.42037C11.5655 1.36186 11.4505 1.33105 11.3335 1.33105C11.2165 1.33105 11.1015 1.36186 11.0002 1.42037L9.00017 2.56704L7.00017 1.42037C6.89882 1.36186 6.78386 1.33105 6.66683 1.33105C6.54981 1.33105 6.43485 1.36186 6.3335 1.42037L4.3335 2.56704L2.3335 1.42037C2.23216 1.36186 2.11719 1.33105 2.00017 1.33105C1.88314 1.33105 1.76818 1.36186 1.66683 1.42037C1.5651 1.47911 1.48069 1.56368 1.42215 1.66554C1.36362 1.76739 1.33303 1.8829 1.3335 2.00037V12.667C1.3335 13.1975 1.54422 13.7062 1.91929 14.0813C2.29436 14.4563 2.80307 14.667 3.3335 14.667H12.6668C13.1973 14.667 13.706 14.4563 14.081 14.0813C14.4561 13.7062 14.6668 13.1975 14.6668 12.667V8.66704C14.6668 8.49023 14.5966 8.32066 14.4716 8.19563C14.3465 8.07061 14.177 8.00037 14.0002 8.00037ZM3.3335 13.3337C3.15669 13.3337 2.98712 13.2635 2.8621 13.1384C2.73707 13.0134 2.66683 12.8438 2.66683 12.667V3.1537L4.00017 3.9137C4.10306 3.96745 4.21742 3.99551 4.3335 3.99551C4.44958 3.99551 4.56394 3.96745 4.66683 3.9137L6.66683 2.76704L8.66683 3.9137C8.76973 3.96745 8.88409 3.99551 9.00017 3.99551C9.11625 3.99551 9.23061 3.96745 9.3335 3.9137L10.6668 3.1537V12.667C10.6686 12.8945 10.7092 13.1199 10.7868 13.3337H3.3335ZM13.3335 12.667C13.3335 12.8438 13.2633 13.0134 13.1382 13.1384C13.0132 13.2635 12.8436 13.3337 12.6668 13.3337C12.49 13.3337 12.3205 13.2635 12.1954 13.1384C12.0704 13.0134 12.0002 12.8438 12.0002 12.667V9.3337H13.3335V12.667ZM8.66683 8.00037H4.66683C4.49002 8.00037 4.32045 8.07061 4.19543 8.19563C4.07041 8.32066 4.00017 8.49023 4.00017 8.66704C4.00017 8.84385 4.07041 9.01342 4.19543 9.13844C4.32045 9.26347 4.49002 9.3337 4.66683 9.3337H8.66683C8.84365 9.3337 9.01322 9.26347 9.13824 9.13844C9.26326 9.01342 9.3335 8.84385 9.3335 8.66704C9.3335 8.49023 9.26326 8.32066 9.13824 8.19563C9.01322 8.07061 8.84365 8.00037 8.66683 8.00037Z" fill="#898DA6" />
</svg>
