<svg width={16} height={16} viewBox="0 0 16 16" fill="none" xmlns="http://www.w3.org/2000/svg">
  <path d="M14.0002 9.33301H13.3335V2.66634H14.0002C14.177 2.66634 14.3465 2.5961 14.4716 2.47108C14.5966 2.34605 14.6668 2.17649 14.6668 1.99967C14.6668 1.82286 14.5966 1.65329 14.4716 1.52827C14.3465 1.40325 14.177 1.33301 14.0002 1.33301H2.00016C1.82335 1.33301 1.65378 1.40325 1.52876 1.52827C1.40373 1.65329 1.3335 1.82286 1.3335 1.99967C1.3335 2.17649 1.40373 2.34605 1.52876 2.47108C1.65378 2.5961 1.82335 2.66634 2.00016 2.66634H2.66683V9.33301H2.00016C1.82335 9.33301 1.65378 9.40325 1.52876 9.52827C1.40373 9.65329 1.3335 9.82286 1.3335 9.99967C1.3335 10.1765 1.40373 10.3461 1.52876 10.4711C1.65378 10.5961 1.82335 10.6663 2.00016 10.6663H7.3335V11.433L4.30016 13.433C4.17572 13.51 4.08008 13.6259 4.02801 13.7627C3.97593 13.8994 3.97032 14.0496 4.01203 14.1898C4.05373 14.3301 4.14045 14.4528 4.25879 14.5389C4.37713 14.625 4.52051 14.6698 4.66683 14.6663C4.7979 14.6678 4.92613 14.6282 5.0335 14.553L7.3335 13.033V13.9997C7.3335 14.1765 7.40373 14.3461 7.52876 14.4711C7.65378 14.5961 7.82335 14.6663 8.00016 14.6663C8.17697 14.6663 8.34654 14.5961 8.47157 14.4711C8.59659 14.3461 8.66683 14.1765 8.66683 13.9997V13.033L10.9668 14.553C11.0742 14.6282 11.2024 14.6678 11.3335 14.6663C11.4759 14.6652 11.6143 14.6186 11.7282 14.5331C11.8422 14.4477 11.9258 14.328 11.9668 14.1916C12.0078 14.0552 12.004 13.9092 11.956 13.7751C11.9081 13.641 11.8184 13.5258 11.7002 13.4463L8.66683 11.4463V10.6663H14.0002C14.177 10.6663 14.3465 10.5961 14.4716 10.4711C14.5966 10.3461 14.6668 10.1765 14.6668 9.99967C14.6668 9.82286 14.5966 9.65329 14.4716 9.52827C14.3465 9.40325 14.177 9.33301 14.0002 9.33301ZM12.0002 9.33301H4.00016V2.66634H12.0002V9.33301ZM6.40683 8.17301C6.58452 8.27799 6.78712 8.33337 6.9935 8.33337C7.19988 8.33337 7.40248 8.27799 7.58016 8.17301L9.58016 7.01301C9.75114 6.90807 9.89236 6.76104 9.99032 6.58596C10.0883 6.41089 10.1397 6.21363 10.1397 6.01301C10.1397 5.81239 10.0883 5.61512 9.99032 5.44005C9.89236 5.26498 9.75114 5.11795 9.58016 5.01301L7.58016 3.85301C7.40248 3.74803 7.19988 3.69265 6.9935 3.69265C6.78712 3.69265 6.58452 3.74803 6.40683 3.85301C6.22778 3.95394 6.07935 4.1014 5.97725 4.27979C5.87515 4.45817 5.82318 4.66084 5.82683 4.86634V7.18634C5.82794 7.38733 5.88218 7.58446 5.98404 7.75774C6.08589 7.93101 6.23175 8.07428 6.40683 8.17301ZM7.16016 5.11967L8.66683 5.99967L7.14683 6.87967L7.16016 5.11967Z" fill="#898DA6" />
</svg>
