<svg width={16} height={16} viewBox="0 0 16 16" fill="none" xmlns="http://www.w3.org/2000/svg">
  <path d="M7.52683 10.193C7.49816 10.2247 7.47145 10.2581 7.44683 10.293C7.4216 10.3302 7.40142 10.3705 7.38683 10.413C7.36761 10.4508 7.35413 10.4912 7.34683 10.533C7.34356 10.5774 7.34356 10.622 7.34683 10.6663C7.34458 10.7538 7.36284 10.8406 7.40017 10.9197C7.43011 11.0024 7.47788 11.0775 7.54009 11.1398C7.6023 11.202 7.67744 11.2497 7.76017 11.2797C7.83997 11.3149 7.92625 11.3332 8.0135 11.3332C8.10075 11.3332 8.18703 11.3149 8.26683 11.2797C8.34956 11.2497 8.4247 11.202 8.48691 11.1398C8.54912 11.0775 8.59689 11.0024 8.62683 10.9197C8.65644 10.8386 8.67002 10.7526 8.66683 10.6663C8.66734 10.5786 8.65052 10.4916 8.61735 10.4104C8.58417 10.3292 8.53529 10.2553 8.4735 10.193C8.41152 10.1305 8.33779 10.0809 8.25655 10.0471C8.17531 10.0132 8.08817 9.99581 8.00017 9.99581C7.91216 9.99581 7.82502 10.0132 7.74378 10.0471C7.66254 10.0809 7.58881 10.1305 7.52683 10.193ZM8.00017 1.33301C6.68162 1.33301 5.39269 1.724 4.29636 2.45654C3.20004 3.18909 2.34555 4.23028 1.84097 5.44845C1.33638 6.66663 1.20436 8.00707 1.4616 9.30028C1.71883 10.5935 2.35377 11.7814 3.28612 12.7137C4.21847 13.6461 5.40636 14.281 6.69956 14.5382C7.99277 14.7955 9.33321 14.6635 10.5514 14.1589C11.7696 13.6543 12.8108 12.7998 13.5433 11.7035C14.2758 10.6071 14.6668 9.31822 14.6668 7.99967C14.6668 7.1242 14.4944 6.25729 14.1594 5.44845C13.8243 4.63961 13.3333 3.90469 12.7142 3.28563C12.0952 2.66657 11.3602 2.17551 10.5514 1.84048C9.74255 1.50545 8.87564 1.33301 8.00017 1.33301ZM8.00017 13.333C6.94533 13.333 5.91419 13.0202 5.03712 12.4342C4.16006 11.8481 3.47648 11.0152 3.07281 10.0407C2.66914 9.06611 2.56352 7.99376 2.76931 6.95919C2.9751 5.92463 3.48305 4.97432 4.22893 4.22844C4.97481 3.48256 5.92512 2.97461 6.95968 2.76882C7.99425 2.56303 9.0666 2.66865 10.0411 3.07232C11.0157 3.47598 11.8486 4.15957 12.4347 5.03663C13.0207 5.9137 13.3335 6.94484 13.3335 7.99967C13.3335 9.41416 12.7716 10.7707 11.7714 11.7709C10.7712 12.7711 9.41465 13.333 8.00017 13.333ZM8.00017 4.66634C7.64887 4.66612 7.30372 4.75842 6.99944 4.93397C6.69516 5.10952 6.44248 5.36211 6.26683 5.66634C6.2186 5.74222 6.18621 5.82707 6.17162 5.91579C6.15702 6.00451 6.16053 6.09527 6.18192 6.1826C6.20331 6.26993 6.24214 6.35203 6.29609 6.42396C6.35003 6.4959 6.41797 6.55617 6.49581 6.60117C6.57366 6.64617 6.6598 6.67495 6.74905 6.68579C6.83831 6.69664 6.92884 6.68931 7.01519 6.66426C7.10154 6.63921 7.18193 6.59695 7.25153 6.54002C7.32113 6.48309 7.37849 6.41268 7.42017 6.33301C7.4789 6.23127 7.56348 6.14686 7.66533 6.08833C7.76718 6.02979 7.88269 5.99921 8.00017 5.99967C8.17698 5.99967 8.34655 6.06991 8.47157 6.19494C8.59659 6.31996 8.66683 6.48953 8.66683 6.66634C8.66683 6.84315 8.59659 7.01272 8.47157 7.13775C8.34655 7.26277 8.17698 7.33301 8.00017 7.33301C7.82335 7.33301 7.65379 7.40325 7.52876 7.52827C7.40374 7.65329 7.3335 7.82286 7.3335 7.99967V8.66634C7.3335 8.84315 7.40374 9.01272 7.52876 9.13775C7.65379 9.26277 7.82335 9.33301 8.00017 9.33301C8.17698 9.33301 8.34655 9.26277 8.47157 9.13775C8.59659 9.01272 8.66683 8.84315 8.66683 8.66634V8.54634C9.10775 8.38635 9.4784 8.07649 9.71401 7.67092C9.94962 7.26535 10.0352 6.78987 9.95576 6.3276C9.87634 5.86533 9.63697 5.44569 9.27949 5.14202C8.92202 4.83835 8.46919 4.66998 8.00017 4.66634Z" fill="#898DA6" />
</svg>
