<svg width={16} height={16} viewBox="0 0 16 16" fill="none" xmlns="http://www.w3.org/2000/svg">
  <path d="M7.6065 8.66641L9.13984 10.1931C9.20232 10.255 9.25192 10.3288 9.28576 10.41C9.31961 10.4913 9.33704 10.5784 9.33704 10.6664C9.33704 10.7544 9.31961 10.8416 9.28576 10.9228C9.25192 11.004 9.20232 11.0778 9.13984 11.1397C9.07786 11.2022 9.00413 11.2518 8.92289 11.2857C8.84165 11.3195 8.75451 11.3369 8.6665 11.3369C8.5785 11.3369 8.49136 11.3195 8.41012 11.2857C8.32888 11.2518 8.25515 11.2022 8.19317 11.1397L5.5265 8.47307C5.46581 8.40967 5.41823 8.33491 5.3865 8.25307C5.31983 8.09077 5.31983 7.90872 5.3865 7.74641C5.41823 7.66457 5.46581 7.58981 5.5265 7.52641L8.19317 4.85974C8.25533 4.79758 8.32912 4.74827 8.41034 4.71463C8.49155 4.68099 8.5786 4.66368 8.6665 4.66368C8.75441 4.66368 8.84146 4.68099 8.92267 4.71463C9.00388 4.74827 9.07768 4.79758 9.13984 4.85974C9.202 4.9219 9.2513 4.99569 9.28494 5.07691C9.31858 5.15812 9.3359 5.24517 9.3359 5.33307C9.3359 5.42098 9.31858 5.50803 9.28494 5.58924C9.2513 5.67046 9.202 5.74425 9.13984 5.80641L7.6065 7.33307H13.9998C14.1766 7.33307 14.3462 7.40331 14.4712 7.52834C14.5963 7.65336 14.6665 7.82293 14.6665 7.99974C14.6665 8.17655 14.5963 8.34612 14.4712 8.47115C14.3462 8.59617 14.1766 8.66641 13.9998 8.66641H7.6065ZM7.99984 1.33307C9.24578 1.32751 10.4683 1.67122 11.5289 2.3252C12.5894 2.97919 13.4454 3.91728 13.9998 5.03307C14.0794 5.1922 14.0925 5.37642 14.0362 5.54521C13.98 5.71399 13.859 5.85351 13.6998 5.93307C13.5407 6.01264 13.3565 6.02573 13.1877 5.96947C13.0189 5.91321 12.8794 5.7922 12.7998 5.63307C12.3784 4.78196 11.7373 4.05882 10.9428 3.5384C10.1483 3.01798 9.22929 2.71915 8.28067 2.6728C7.33204 2.62645 6.38825 2.83426 5.54682 3.27475C4.7054 3.71524 3.99686 4.37243 3.49443 5.1784C2.992 5.98438 2.71391 6.90991 2.6889 7.85933C2.66389 8.80876 2.89286 9.74764 3.35216 10.5789C3.81145 11.4103 4.48441 12.1038 5.30148 12.588C6.11855 13.0722 7.05009 13.3294 7.99984 13.3331C8.99392 13.3374 9.96907 13.0613 10.8134 12.5366C11.6577 12.0118 12.3369 11.2597 12.7732 10.3664C12.8527 10.2073 12.9923 10.0863 13.161 10.03C13.3298 9.97375 13.514 9.98684 13.6732 10.0664C13.8323 10.146 13.9533 10.2855 14.0096 10.4543C14.0658 10.6231 14.0527 10.8073 13.9732 10.9664C13.4446 12.0301 12.6415 12.9332 11.6469 13.5824C10.6522 14.2316 9.50221 14.6033 8.31576 14.6591C7.12931 14.7148 5.94951 14.4525 4.89841 13.8994C3.8473 13.3463 2.96305 12.5224 2.33712 11.513C1.7112 10.5035 1.36632 9.34517 1.33817 8.15774C1.31002 6.97032 1.59962 5.79694 2.17701 4.75896C2.7544 3.72099 3.59861 2.85612 4.62232 2.25381C5.64604 1.6515 6.81208 1.33363 7.99984 1.33307Z" fill="#898DA6" />
</svg>
