<svg width={16} height={16} viewBox="0 0 16 16" fill="none" xmlns="http://www.w3.org/2000/svg">
  <path d="M13.2735 10.3397H10.2535C10.0767 10.3397 9.90712 10.4099 9.78209 10.5349C9.65707 10.66 9.58683 10.8295 9.58683 11.0063C9.58683 11.1832 9.65707 11.3527 9.78209 11.4777C9.90712 11.6028 10.0767 11.673 10.2535 11.673H11.8535C11.1181 12.4415 10.1698 12.9726 9.13027 13.1979C8.09078 13.4233 7.00764 13.3327 6.02001 12.9378C5.03239 12.5429 4.18541 11.8617 3.58789 10.9818C2.99037 10.1018 2.66961 9.06332 2.66683 7.99967C2.66683 7.82286 2.59659 7.65329 2.47157 7.52827C2.34654 7.40325 2.17697 7.33301 2.00016 7.33301C1.82335 7.33301 1.65378 7.40325 1.52876 7.52827C1.40373 7.65329 1.3335 7.82286 1.3335 7.99967C1.33702 9.30154 1.72164 10.5739 2.4399 11.6597C3.15815 12.7455 4.17861 13.5972 5.37532 14.1098C6.57204 14.6224 7.89265 14.7734 9.17417 14.5441C10.4557 14.3148 11.6421 13.7154 12.5868 12.8197V13.9997C12.5868 14.1765 12.6571 14.3461 12.7821 14.4711C12.9071 14.5961 13.0767 14.6663 13.2535 14.6663C13.4303 14.6663 13.5999 14.5961 13.7249 14.4711C13.8499 14.3461 13.9202 14.1765 13.9202 13.9997V10.9997C13.9185 10.8274 13.8503 10.6625 13.7297 10.5395C13.6092 10.4164 13.4457 10.3448 13.2735 10.3397ZM8.00016 1.33301C6.29109 1.33788 4.64916 1.99895 3.4135 3.17967V1.99967C3.4135 1.82286 3.34326 1.65329 3.21823 1.52827C3.09321 1.40325 2.92364 1.33301 2.74683 1.33301C2.57002 1.33301 2.40045 1.40325 2.27542 1.52827C2.1504 1.65329 2.08016 1.82286 2.08016 1.99967V4.99967C2.08016 5.17649 2.1504 5.34605 2.27542 5.47108C2.40045 5.5961 2.57002 5.66634 2.74683 5.66634H5.74683C5.92364 5.66634 6.09321 5.5961 6.21823 5.47108C6.34326 5.34605 6.4135 5.17649 6.4135 4.99967C6.4135 4.82286 6.34326 4.65329 6.21823 4.52827C6.09321 4.40325 5.92364 4.33301 5.74683 4.33301H4.14683C4.88181 3.56492 5.82956 3.03401 6.86843 2.80841C7.9073 2.58282 8.98989 2.67284 9.97723 3.06692C10.9646 3.46099 11.8116 4.14115 12.4097 5.02008C13.0077 5.899 13.3294 6.9366 13.3335 7.99967C13.3335 8.17649 13.4037 8.34606 13.5288 8.47108C13.6538 8.5961 13.8234 8.66634 14.0002 8.66634C14.177 8.66634 14.3465 8.5961 14.4716 8.47108C14.5966 8.34606 14.6668 8.17649 14.6668 7.99967C14.6668 7.1242 14.4944 6.25729 14.1594 5.44845C13.8243 4.63961 13.3333 3.90469 12.7142 3.28563C12.0952 2.66657 11.3602 2.17551 10.5514 1.84048C9.74255 1.50545 8.87564 1.33301 8.00016 1.33301Z" fill="#898DA6" />
</svg>
