<svg width={16} height={16} viewBox="0 0 16 16" fill="none" xmlns="http://www.w3.org/2000/svg">
  <path d="M8.0002 1.33301C6.70718 1.33546 5.44278 1.71388 4.36101 2.42217C3.27925 3.13045 2.42679 4.13803 1.90749 5.32219C1.38819 6.50634 1.22445 7.81595 1.43621 9.09151C1.64798 10.3671 2.22611 11.5535 3.1002 12.5063C3.72448 13.183 4.48216 13.7231 5.32549 14.0925C6.16882 14.4619 7.07952 14.6526 8.0002 14.6526C8.92087 14.6526 9.83157 14.4619 10.6749 14.0925C11.5182 13.7231 12.2759 13.183 12.9002 12.5063C13.7743 11.5535 14.3524 10.3671 14.5642 9.09151C14.7759 7.81595 14.6122 6.50634 14.0929 5.32219C13.5736 4.13803 12.7211 3.13045 11.6394 2.42217C10.5576 1.71388 9.29321 1.33546 8.0002 1.33301ZM8.0002 13.333C6.61917 13.3309 5.29281 12.7932 4.3002 11.833C4.60156 11.0994 5.11422 10.4719 5.77303 10.0303C6.43184 9.58866 7.20707 9.35288 8.0002 9.35288C8.79332 9.35288 9.56855 9.58866 10.2274 10.0303C10.8862 10.4719 11.3988 11.0994 11.7002 11.833C10.7076 12.7932 9.38122 13.3309 8.0002 13.333ZM6.66686 6.66634C6.66686 6.40263 6.74506 6.14485 6.89157 5.92558C7.03808 5.70632 7.24632 5.53542 7.48995 5.4345C7.73359 5.33358 8.00167 5.30718 8.26031 5.35863C8.51896 5.41007 8.75653 5.53706 8.943 5.72353C9.12947 5.91 9.25646 6.14758 9.30791 6.40622C9.35936 6.66486 9.33295 6.93295 9.23203 7.17659C9.13112 7.42022 8.96022 7.62846 8.74095 7.77497C8.52169 7.92148 8.2639 7.99967 8.0002 7.99967C7.64657 7.99967 7.30743 7.8592 7.05739 7.60915C6.80734 7.3591 6.66686 7.01996 6.66686 6.66634ZM12.6069 10.6663C12.0112 9.64751 11.0945 8.85503 10.0002 8.41301C10.3396 8.02811 10.5608 7.55345 10.6372 7.04597C10.7135 6.53849 10.6418 6.01975 10.4307 5.55201C10.2195 5.08426 9.87792 4.68738 9.4468 4.40898C9.01568 4.13059 8.51339 3.98251 8.0002 3.98251C7.487 3.98251 6.98471 4.13059 6.55359 4.40898C6.12247 4.68738 5.78084 5.08426 5.56969 5.55201C5.35855 6.01975 5.28685 6.53849 5.36321 7.04597C5.43958 7.55345 5.66075 8.02811 6.0002 8.41301C4.90593 8.85503 3.98917 9.64751 3.39353 10.6663C2.91882 9.85774 2.66801 8.93732 2.66686 7.99967C2.66686 6.58519 3.22877 5.22863 4.22896 4.22844C5.22915 3.22824 6.58571 2.66634 8.0002 2.66634C9.41468 2.66634 10.7712 3.22824 11.7714 4.22844C12.7716 5.22863 13.3335 6.58519 13.3335 7.99967C13.3324 8.93732 13.0816 9.85774 12.6069 10.6663Z" fill="#26CAAC" />
</svg>
