<svg width={23} height={23} viewBox="0 0 23 23" fill="none" xmlns="http://www.w3.org/2000/svg">
  <path d="M11.7138 15.0409L8.14263 18.6121C7.71026 19.0293 7.13282 19.2625 6.53193 19.2625C5.93104 19.2625 5.3536 19.0293 4.92123 18.6121C4.70918 18.4008 4.54092 18.1498 4.42611 17.8734C4.3113 17.597 4.2522 17.3007 4.2522 17.0014C4.2522 16.7021 4.3113 16.4057 4.42611 16.1293C4.54092 15.8529 4.70918 15.6019 4.92123 15.3907L8.49238 11.8195C8.66569 11.6462 8.76306 11.4111 8.76306 11.166C8.76306 10.9209 8.66569 10.6859 8.49238 10.5126C8.31906 10.3392 8.084 10.2419 7.8389 10.2419C7.59379 10.2419 7.35873 10.3392 7.18541 10.5126L3.61427 14.0929C2.89485 14.876 2.50576 15.9067 2.52827 16.9698C2.55078 18.033 2.98314 19.0463 3.73506 19.7982C4.48698 20.5502 5.50031 20.9825 6.56345 21.005C7.62659 21.0275 8.65732 20.6384 9.44039 19.919L13.0207 16.3479C13.194 16.1746 13.2914 15.9395 13.2914 15.6944C13.2914 15.4493 13.194 15.2142 13.0207 15.0409C12.8474 14.8676 12.6124 14.7702 12.3673 14.7702C12.1221 14.7702 11.8871 14.8676 11.7138 15.0409ZM19.6108 3.92251C18.8365 3.15306 17.7893 2.72119 16.6977 2.72119C15.6062 2.72119 14.5589 3.15306 13.7847 3.92251L10.2043 7.49365C10.1185 7.57947 10.0504 7.68135 10.004 7.79347C9.95754 7.90559 9.93364 8.02577 9.93364 8.14713C9.93364 8.2685 9.95754 8.38867 10.004 8.50079C10.0504 8.61292 10.1185 8.7148 10.2043 8.80061C10.2901 8.88643 10.392 8.9545 10.5041 9.00095C10.6163 9.04739 10.7364 9.0713 10.8578 9.0713C10.9792 9.0713 11.0993 9.04739 11.2115 9.00095C11.3236 8.9545 11.4255 8.88643 11.5113 8.80061L15.0824 5.22947C15.5148 4.81219 16.0922 4.57899 16.6931 4.57899C17.294 4.57899 17.8715 4.81219 18.3038 5.22947C18.5159 5.44069 18.6841 5.6917 18.7989 5.96811C18.9138 6.24451 18.9729 6.54087 18.9729 6.84017C18.9729 7.13947 18.9138 7.43582 18.7989 7.71223C18.6841 7.98863 18.5159 8.23964 18.3038 8.45086L14.7327 12.022C14.6464 12.1076 14.5779 12.2094 14.5312 12.3215C14.4845 12.4337 14.4604 12.554 14.4604 12.6755C14.4604 12.797 14.4845 12.9173 14.5312 13.0295C14.5779 13.1416 14.6464 13.2434 14.7327 13.329C14.8182 13.4152 14.92 13.4837 15.0322 13.5304C15.1444 13.5772 15.2647 13.6012 15.3862 13.6012C15.5077 13.6012 15.628 13.5772 15.7401 13.5304C15.8523 13.4837 15.9541 13.4152 16.0396 13.329L19.6108 9.74863C20.3802 8.97437 20.8121 7.92713 20.8121 6.83557C20.8121 5.744 20.3802 4.69676 19.6108 3.92251ZM8.69487 14.8384C8.78087 14.9237 8.88286 14.9912 8.995 15.037C9.10714 15.0828 9.22722 15.106 9.34835 15.1053C9.46948 15.106 9.58956 15.0828 9.70169 15.037C9.81383 14.9912 9.91583 14.9237 10.0018 14.8384L14.5302 10.3101C14.7035 10.1368 14.8009 9.90169 14.8009 9.65659C14.8009 9.41148 14.7035 9.17642 14.5302 9.0031C14.3569 8.82979 14.1218 8.73242 13.8767 8.73242C13.6316 8.73242 13.3965 8.82979 13.2232 9.0031L8.69487 13.5315C8.6086 13.617 8.54013 13.7188 8.4934 13.831C8.44667 13.9431 8.42261 14.0634 8.42261 14.1849C8.42261 14.3064 8.44667 14.4267 8.4934 14.5389C8.54013 14.6511 8.6086 14.7529 8.69487 14.8384Z" fill="#898DA6" />
</svg>
