<svg width={16} height={17} viewBox="0 0 16 17" fill="none" xmlns="http://www.w3.org/2000/svg">
  <path d="M15.624 4.86312C15.5024 4.78998 15.3644 4.75147 15.224 4.75147C15.0836 4.75147 14.9456 4.78998 14.824 4.86312L12 6.31312C11.9772 5.66609 11.7143 5.05351 11.2667 4.60432C10.819 4.15512 10.2216 3.90435 9.6 3.90479H2.4C1.76348 3.90479 1.15303 4.16818 0.702944 4.63702C0.252856 5.10586 0 5.74174 0 6.40479V11.4048C0 12.0678 0.252856 12.7037 0.702944 13.1726C1.15303 13.6414 1.76348 13.9048 2.4 13.9048H9.6C10.2216 13.9052 10.819 13.6544 11.2667 13.2053C11.7143 12.7561 11.9772 12.1435 12 11.4965L14.848 12.9798C14.957 13.038 15.0775 13.0694 15.2 13.0715C15.3498 13.072 15.4967 13.0286 15.624 12.9465C15.7393 12.8714 15.8343 12.767 15.9001 12.643C15.9659 12.5191 16.0003 12.3797 16 12.2381V5.57145C16.0003 5.42983 15.9659 5.29048 15.9001 5.16654C15.8343 5.0426 15.7393 4.93818 15.624 4.86312ZM10.4 11.4048C10.4 11.6258 10.3157 11.8378 10.1657 11.994C10.0157 12.1503 9.81217 12.2381 9.6 12.2381H2.4C2.18783 12.2381 1.98434 12.1503 1.83431 11.994C1.68429 11.8378 1.6 11.6258 1.6 11.4048V6.40479C1.6 6.18377 1.68429 5.97181 1.83431 5.81553C1.98434 5.65925 2.18783 5.57145 2.4 5.57145H9.6C9.81217 5.57145 10.0157 5.65925 10.1657 5.81553C10.3157 5.97181 10.4 6.18377 10.4 6.40479V11.4048ZM14.4 10.8881L12 9.63812V8.17145L14.4 6.92145V10.8881Z" fill="#898DA6" />
</svg>
