<svg width={12} height={12} viewBox="0 0 12 12" fill="none" xmlns="http://www.w3.org/2000/svg">
  <path d="M9.35522 3.60493C9.30874 3.55807 9.25344 3.52087 9.19251 3.49548C9.13158 3.4701 9.06622 3.45703 9.00022 3.45703C8.93421 3.45703 8.86886 3.4701 8.80793 3.49548C8.747 3.52087 8.6917 3.55807 8.64522 3.60493L4.92022 7.33493L3.35522 5.76493C3.30696 5.71831 3.24999 5.68165 3.18756 5.65705C3.12513 5.63245 3.05847 5.62039 2.99138 5.62155C2.92429 5.62271 2.85809 5.63707 2.79655 5.66382C2.73501 5.69056 2.67934 5.72917 2.63272 5.77743C2.5861 5.82569 2.54944 5.88266 2.52484 5.94509C2.50024 6.00752 2.48817 6.07418 2.48933 6.14127C2.4905 6.20836 2.50486 6.27456 2.53161 6.3361C2.55835 6.39764 2.59696 6.45331 2.64522 6.49993L4.56522 8.41993C4.6117 8.46679 4.667 8.50399 4.72793 8.52938C4.78886 8.55476 4.85421 8.56783 4.92022 8.56783C4.98622 8.56783 5.05158 8.55476 5.11251 8.52938C5.17344 8.50399 5.22874 8.46679 5.27522 8.41993L9.35522 4.33993C9.40597 4.29311 9.44647 4.23628 9.47418 4.17303C9.50188 4.10978 9.51618 4.04148 9.51618 3.97243C9.51618 3.90338 9.50188 3.83508 9.47418 3.77183C9.44647 3.70858 9.40597 3.65175 9.35522 3.60493Z" fill="white" />
</svg>
