<svg width={49} height={49} viewBox="0 0 49 49" fill="none" xmlns="http://www.w3.org/2000/svg">
  <path opacity="0.3" d="M31.6539 25.6983L26.5833 22.7719V12.0833C26.5833 11.4424 26.3287 10.8277 25.8755 10.3745C25.4223 9.92128 24.8076 9.66667 24.1667 9.66667C23.5257 9.66667 22.9111 9.92128 22.4578 10.3745C22.0046 10.8277 21.75 11.4424 21.75 12.0833V24.1667C21.7499 24.591 21.8615 25.0078 22.0736 25.3753C22.2857 25.7428 22.5909 26.0479 22.9583 26.26L29.2372 29.885C29.5121 30.0439 29.8156 30.147 30.1304 30.1886C30.4452 30.2301 30.7651 30.2092 31.0718 30.1271C31.3785 30.045 31.666 29.9032 31.9179 29.7099C32.1698 29.5166 32.3812 29.2756 32.5399 29.0006C32.6987 28.7256 32.8017 28.4221 32.843 28.1072C32.8844 27.7924 32.8633 27.4726 32.7811 27.1659C32.6988 26.8592 32.5569 26.5718 32.3635 26.32C32.1701 26.0682 31.9289 25.8569 31.6539 25.6983ZM24.1667 0C19.387 0 14.7146 1.41735 10.7404 4.07282C6.76621 6.72829 3.66871 10.5026 1.83959 14.9185C0.010471 19.3344 -0.46811 24.1935 0.464367 28.8813C1.39684 33.5692 3.69849 37.8753 7.07826 41.2551C10.458 44.6348 14.7641 46.9365 19.452 47.869C24.1399 48.8015 28.999 48.3229 33.4149 46.4938C37.8307 44.6646 41.6051 41.5671 44.2605 37.5929C46.916 33.6188 48.3333 28.9464 48.3333 24.1667C48.3262 17.7595 45.7778 11.6167 41.2472 7.08612C36.7166 2.55554 30.5739 0.00712573 24.1667 0ZM24.1667 43.5C20.3429 43.5 16.605 42.3661 13.4257 40.2417C10.2463 38.1174 7.7683 35.0979 6.30501 31.5652C4.84171 28.0325 4.45885 24.1452 5.20483 20.3949C5.95081 16.6446 7.79213 13.1998 10.4959 10.4959C13.1998 7.79212 16.6446 5.9508 20.3949 5.20482C24.1452 4.45884 28.0325 4.8417 31.5652 6.305C35.0979 7.76829 38.1174 10.2463 40.2418 13.4256C42.3661 16.605 43.5 20.3429 43.5 24.1667C43.4941 29.2924 41.4554 34.2065 37.8309 37.8309C34.2065 41.4554 29.2924 43.4941 24.1667 43.5Z" fill="#F2994A" />
</svg>
