<svg width={50} height={50} viewBox="0 0 50 50" fill="none" xmlns="http://www.w3.org/2000/svg">
  <path opacity="0.3" d="M32.4869 26.5313L27.4164 23.6049V12.9163C27.4164 12.2754 27.1617 11.6607 26.7085 11.2075C26.2553 10.7543 25.6406 10.4997 24.9997 10.4997C24.3587 10.4997 23.7441 10.7543 23.2908 11.2075C22.8376 11.6607 22.583 12.2754 22.583 12.9163V24.9997C22.5829 25.424 22.6945 25.8408 22.9066 26.2083C23.1187 26.5758 23.4239 26.8809 23.7914 27.093L30.0702 30.718C30.3451 30.8769 30.6486 30.98 30.9634 31.0216C31.2782 31.0631 31.5981 31.0422 31.9048 30.9601C32.2115 30.878 32.499 30.7362 32.7509 30.5429C33.0028 30.3496 33.2142 30.1086 33.3729 29.8336C33.5317 29.5586 33.6347 29.2551 33.676 28.9403C33.7174 28.6254 33.6964 28.3056 33.6141 27.9989C33.5318 27.6922 33.3899 27.4048 33.1965 27.153C33.0031 26.9012 32.7619 26.6899 32.4869 26.5313ZM24.9997 0.833008C20.22 0.833008 15.5476 2.25036 11.5734 4.90583C7.59922 7.56129 4.50171 11.3356 2.6726 15.7515C0.843479 20.1674 0.364898 25.0265 1.29737 29.7144C2.22985 34.4022 4.5315 38.7083 7.91127 42.0881C11.291 45.4679 15.5971 47.7695 20.285 48.702C24.9729 49.6345 29.832 49.1559 34.2479 47.3268C38.6638 45.4977 42.4381 42.4001 45.0935 38.426C47.749 34.4518 49.1664 29.7794 49.1664 24.9997C49.1592 18.5925 46.6108 12.4497 42.0802 7.91913C37.5496 3.38855 31.4069 0.840134 24.9997 0.833008ZM24.9997 44.333C21.1759 44.333 17.438 43.1991 14.2587 41.0748C11.0793 38.9504 8.60131 35.9309 7.13802 32.3982C5.67472 28.8655 5.29186 24.9782 6.03784 21.2279C6.78382 17.4776 8.62514 14.0328 11.329 11.3289C14.0328 8.62513 17.4776 6.78381 21.2279 6.03783C24.9782 5.29185 28.8655 5.67471 32.3982 7.138C35.9309 8.6013 38.9504 11.0793 41.0748 14.2586C43.1991 17.438 44.333 21.1759 44.333 24.9997C44.3272 30.1254 42.2884 35.0395 38.6639 38.6639C35.0395 42.2884 30.1254 44.3271 24.9997 44.333Z" fill="#26CAAC" />
</svg>
