<svg width={12} height={12} viewBox="0 0 12 12" fill="none" xmlns="http://www.w3.org/2000/svg">
  <path d="M10.8547 3.60493C10.8082 3.55807 10.7529 3.52087 10.692 3.49548C10.6311 3.4701 10.5657 3.45703 10.4997 3.45703C10.4337 3.45703 10.3684 3.4701 10.3074 3.49548C10.2465 3.52087 10.1912 3.55807 10.1447 3.60493L6.41973 7.33493L6.35473 7.26493C6.30647 7.21831 6.2495 7.18165 6.18707 7.15705C6.12464 7.13245 6.05798 7.12039 5.99089 7.12155C5.9238 7.12271 5.8576 7.13707 5.79606 7.16382C5.73452 7.19056 5.67885 7.22917 5.63223 7.27743C5.58561 7.32569 5.54895 7.38266 5.52435 7.44509C5.49975 7.50752 5.48769 7.57418 5.48885 7.64127C5.49001 7.70836 5.50437 7.77456 5.53112 7.8361C5.55786 7.89764 5.59647 7.95331 5.64473 7.99993L6.06473 8.41993C6.11121 8.46679 6.16651 8.50399 6.22744 8.52938C6.28837 8.55476 6.35372 8.56783 6.41973 8.56783C6.48574 8.56783 6.55109 8.55476 6.61202 8.52938C6.67295 8.50399 6.72825 8.46679 6.77473 8.41993L10.8547 4.33993C10.9055 4.29311 10.946 4.23628 10.9737 4.17303C11.0014 4.10978 11.0157 4.04148 11.0157 3.97243C11.0157 3.90338 11.0014 3.83508 10.9737 3.77183C10.946 3.70858 10.9055 3.65175 10.8547 3.60493Z" fill="white" />
  <path d="M8.35522 3.60493C8.30874 3.55807 8.25344 3.52087 8.19251 3.49548C8.13158 3.4701 8.06622 3.45703 8.00022 3.45703C7.93421 3.45703 7.86886 3.4701 7.80793 3.49548C7.747 3.52087 7.6917 3.55807 7.64522 3.60493L3.92022 7.33493L2.35522 5.76493C2.30696 5.71831 2.24999 5.68165 2.18756 5.65705C2.12513 5.63245 2.05847 5.62039 1.99138 5.62155C1.92429 5.62271 1.85809 5.63707 1.79655 5.66382C1.73501 5.69056 1.67934 5.72917 1.63272 5.77743C1.5861 5.82569 1.54944 5.88266 1.52484 5.94509C1.50024 6.00752 1.48817 6.07418 1.48933 6.14127C1.4905 6.20836 1.50486 6.27456 1.53161 6.3361C1.55835 6.39764 1.59696 6.45331 1.64522 6.49993L3.56522 8.41993C3.6117 8.46679 3.667 8.50399 3.72793 8.52938C3.78886 8.55476 3.85421 8.56783 3.92022 8.56783C3.98622 8.56783 4.05158 8.55476 4.11251 8.52938C4.17344 8.50399 4.22874 8.46679 4.27522 8.41993L8.35522 4.33993C8.40597 4.29311 8.44647 4.23628 8.47418 4.17303C8.50188 4.10978 8.51618 4.04148 8.51618 3.97243C8.51618 3.90338 8.50188 3.83508 8.47418 3.77183C8.44647 3.70858 8.40597 3.65175 8.35522 3.60493Z" fill="white" />
</svg>
