<svg width="16" height="16" viewBox="0 0 16 16" fill="none" xmlns="http://www.w3.org/2000/svg">
<path d="M14.0913 14H1.90903C1.40694 14 1 13.5523 1 13C1 12.4477 1.40694 12 1.90903 12H14.091C14.5931 12 15 12.4477 15 13C15 13.5523 14.5934 14 14.0913 14Z" fill="#26CAAC"/>
<path d="M14.0913 9H1.90903C1.40694 9 1 8.55233 1 8C1 7.44767 1.40694 7 1.90903 7H14.091C14.5931 7 15 7.44767 15 8C15.0003 8.55233 14.5934 9 14.0913 9Z" fill="#26CAAC"/>
<path d="M14.0913 4H1.90903C1.40694 4 1 3.55233 1 3C1 2.44767 1.40694 2 1.90903 2H14.091C14.5931 2 15 2.44767 15 3C15 3.55233 14.5934 4 14.0913 4Z" fill="#26CAAC"/>
</svg>
