<svg width={24} height={24} viewBox="0 0 24 24" fill="none" xmlns="http://www.w3.org/2000/svg">
  <path d="M18.7537 10.4873L8.25428 5.23577C7.83992 5.02947 7.37204 4.95602 6.91442 5.02545C6.45681 5.09487 6.03174 5.30379 5.69716 5.62372C5.36259 5.94364 5.13479 6.35901 5.04482 6.81318C4.95486 7.26735 5.0071 7.73823 5.19444 8.16161L6.99434 12.1903C7.03518 12.2877 7.05622 12.3922 7.05622 12.4979C7.05622 12.6035 7.03518 12.708 6.99434 12.8054L5.19444 16.8341C5.04198 17.1767 4.97752 17.552 5.00694 17.9259C5.03635 18.2998 5.1587 18.6604 5.36287 18.975C5.56704 19.2895 5.84655 19.5481 6.17601 19.7271C6.50546 19.9061 6.87441 19.9999 7.24933 20C7.60049 19.9965 7.94641 19.9145 8.26178 19.7599L18.7612 14.5084C19.1336 14.321 19.4467 14.0338 19.6654 13.6787C19.8842 13.3237 20 12.9149 20 12.4979C20 12.0808 19.8842 11.672 19.6654 11.317C19.4467 10.9619 19.1336 10.6747 18.7612 10.4873H18.7537ZM18.0862 13.1655L7.58681 18.417C7.44894 18.4833 7.29413 18.5057 7.14313 18.4815C6.99213 18.4572 6.85216 18.3873 6.74199 18.2811C6.63183 18.175 6.55673 18.0377 6.52677 17.8877C6.49681 17.7377 6.51342 17.5821 6.57437 17.4418L8.36677 13.4131C8.38997 13.3593 8.41001 13.3042 8.42677 13.2481H13.594C13.7929 13.2481 13.9836 13.169 14.1243 13.0283C14.2649 12.8876 14.3439 12.6968 14.3439 12.4979C14.3439 12.2989 14.2649 12.1081 14.1243 11.9674C13.9836 11.8267 13.7929 11.7476 13.594 11.7476H8.42677C8.41001 11.6915 8.38997 11.6364 8.36677 11.5826L6.57437 7.55393C6.51342 7.41362 6.49681 7.25801 6.52677 7.10798C6.55673 6.95795 6.63183 6.82068 6.74199 6.71455C6.85216 6.60843 6.99213 6.53854 7.14313 6.51425C7.29413 6.48996 7.44894 6.51243 7.58681 6.57865L18.0862 11.8302C18.2091 11.8931 18.3122 11.9888 18.3842 12.1066C18.4562 12.2244 18.4942 12.3598 18.4942 12.4979C18.4942 12.6359 18.4562 12.7713 18.3842 12.8891C18.3122 13.0069 18.2091 13.1026 18.0862 13.1655Z" fill="white" />
</svg>
