<svg width={16} height={16} viewBox="0 0 16 16" fill="none" xmlns="http://www.w3.org/2000/svg">
  <path d="M14.6667 4.82733C14.6672 4.73959 14.6503 4.65262 14.6172 4.57139C14.584 4.49017 14.5351 4.41629 14.4733 4.354L11.6467 1.52733C11.5844 1.46554 11.5105 1.41666 11.4293 1.38348C11.348 1.3503 11.2611 1.33349 11.1733 1.334C11.0856 1.33349 10.9986 1.3503 10.9174 1.38348C10.8362 1.41666 10.7623 1.46554 10.7 1.52733L8.81332 3.414L1.52666 10.7007C1.46487 10.763 1.41599 10.8368 1.38281 10.9181C1.34963 10.9993 1.33282 11.0863 1.33332 11.174V14.0007C1.33332 14.1775 1.40356 14.347 1.52859 14.4721C1.65361 14.5971 1.82318 14.6673 1.99999 14.6673H4.82666C4.91994 14.6724 5.01325 14.6578 5.10054 14.6245C5.18782 14.5912 5.26713 14.5399 5.33332 14.474L12.58 7.18733L14.4733 5.334C14.5342 5.26938 14.5838 5.19502 14.62 5.114C14.6264 5.06086 14.6264 5.00714 14.62 4.954C14.6231 4.92296 14.6231 4.8917 14.62 4.86066L14.6667 4.82733ZM4.55332 13.334H2.66666V11.4473L9.28666 4.82733L11.1733 6.714L4.55332 13.334ZM12.1133 5.774L10.2267 3.88733L11.1733 2.94733L13.0533 4.82733L12.1133 5.774Z" fill="#26CAAC" />
</svg>
