<svg width={13} height={14} viewBox="0 0 13 14" fill="none" xmlns="http://www.w3.org/2000/svg">
  <path d="M9.18125 7.18118C9.61478 6.80082 9.96251 6.33038 10.2008 5.80178C10.4392 5.27319 10.5625 4.69882 10.5625 4.11765C10.5625 3.02558 10.1345 1.97824 9.37262 1.20603C8.61075 0.433822 7.57744 0 6.5 0C5.42256 0 4.38925 0.433822 3.62738 1.20603C2.86551 1.97824 2.4375 3.02558 2.4375 4.11765C2.43749 4.69882 2.56084 5.27319 2.79916 5.80178C3.03749 6.33038 3.38522 6.80082 3.81875 7.18118C2.68136 7.7032 1.71638 8.5462 1.03917 9.60939C0.361965 10.6726 0.00119588 11.911 0 13.1765C0 13.3949 0.0856024 13.6044 0.237976 13.7588C0.390349 13.9132 0.597012 14 0.8125 14C1.02799 14 1.23465 13.9132 1.38702 13.7588C1.5394 13.6044 1.625 13.3949 1.625 13.1765C1.625 11.866 2.13861 10.6092 3.05285 9.68253C3.96709 8.75588 5.20707 8.23529 6.5 8.23529C7.79293 8.23529 9.03291 8.75588 9.94715 9.68253C10.8614 10.6092 11.375 11.866 11.375 13.1765C11.375 13.3949 11.4606 13.6044 11.613 13.7588C11.7653 13.9132 11.972 14 12.1875 14C12.403 14 12.6097 13.9132 12.762 13.7588C12.9144 13.6044 13 13.3949 13 13.1765C12.9988 11.911 12.638 10.6726 11.9608 9.60939C11.2836 8.5462 10.3186 7.7032 9.18125 7.18118ZM6.5 6.58823C6.01791 6.58823 5.54664 6.44334 5.1458 6.17187C4.74495 5.90039 4.43253 5.51454 4.24804 5.0631C4.06356 4.61166 4.01528 4.11491 4.10934 3.63566C4.20339 3.15641 4.43554 2.7162 4.77643 2.37068C5.11732 2.02516 5.55164 1.78986 6.02447 1.69453C6.4973 1.5992 6.9874 1.64813 7.43279 1.83512C7.87819 2.02211 8.25887 2.33878 8.52671 2.74506C8.79454 3.15135 8.9375 3.62901 8.9375 4.11765C8.9375 4.77289 8.68069 5.40129 8.22357 5.86462C7.76645 6.32794 7.14646 6.58823 6.5 6.58823Z" fill="white" />
  <path fillRule="evenodd" clipRule="evenodd" d="M0 13.1833C0 12.7323 0.370383 12.3667 0.827273 12.3667H12.1727C12.6296 12.3667 13 12.7323 13 13.1833C13 13.6344 12.6296 14 12.1727 14H0.827273C0.370383 14 0 13.6344 0 13.1833Z" fill="white" />
</svg>

