<svg width={12} height={14} viewBox="0 0 12 14" fill="none" xmlns="http://www.w3.org/2000/svg">
  <path fillRule="evenodd" clipRule="evenodd" d="M9.33341 3.66683V5.00016C9.86385 5.00016 10.3726 5.21088 10.7476 5.58595C11.1227 5.96102 11.3334 6.46973 11.3334 7.00016V11.6668C11.3334 12.1973 11.1227 12.706 10.7476 13.081C10.3726 13.4561 9.86385 13.6668 9.33341 13.6668H2.66675C2.13631 13.6668 1.62761 13.4561 1.25253 13.081C0.877462 12.706 0.666748 12.1973 0.666748 11.6668V7.00016C0.666748 6.46973 0.877462 5.96102 1.25253 5.58595C1.62761 5.21088 2.13631 5.00016 2.66675 5.00016V3.66683C2.66675 2.78277 3.01794 1.93493 3.64306 1.30981C4.26818 0.684686 5.11603 0.333496 6.00008 0.333496C6.88414 0.333496 7.73198 0.684686 8.3571 1.30981C8.98222 1.93493 9.33341 2.78277 9.33341 3.66683ZM5.52534 7.89546C5.65036 7.77043 5.81993 7.7002 5.99674 7.7002C6.17356 7.7002 6.34312 7.77043 6.46815 7.89546C6.59317 8.02048 6.66341 8.19005 6.66341 8.36686V10.3669C6.66341 10.5437 6.59317 10.7132 6.46815 10.8383C6.34312 10.9633 6.17356 11.0335 5.99674 11.0335C5.81993 11.0335 5.65036 10.9633 5.52534 10.8383C5.40032 10.7132 5.33008 10.5437 5.33008 10.3669V8.36686C5.33008 8.19005 5.40032 8.02048 5.52534 7.89546ZM4 3.66699C4 3.13656 4.21071 2.62785 4.58579 2.25278C4.96086 1.87771 5.46957 1.66699 6 1.66699C6.53043 1.66699 7.03914 1.87771 7.41421 2.25278C7.78929 2.62785 8 3.13656 8 3.66699V5.00033H4V3.66699Z" fill="#898DA6" />
</svg>
